<?xml version="1.0" encoding="UTF-8"?>
<svg id="_ÎÓÈ_1" data-name="—ÎÓÈ_1" xmlns="http://www.w3.org/2000/svg" viewBox="0 0 2500 2000">
  <defs>
    <style>
      .cls-1 {
        fill: #31e0e8;
      }

      .cls-2 {
        fill: none;
        stroke: #595858;
        stroke-linecap: round;
        stroke-linejoin: round;
        stroke-width: 13.31px;
      }

      .cls-3 {
        fill: #e48473;
      }

      .cls-4 {
        fill: #fff;
      }

      .cls-5 {
        opacity: .53;
      }

      .cls-5, .cls-6 {
        fill: #73d3e4;
      }
    </style>
  </defs>
  <rect class="cls-4" width="2500" height="2000"/>
  <g>
    <path class="cls-6" d="M2022.88,1091.68c-11.93,17.9,27.71,79.53,2.4,73.97-93.36-20.49,4.84,29.7-7.02,39.76-10.38,8.8-37.14,50.93-37.14,64.05s26.83,108.62-23.43,130.53c-70.29,30.64-234.52-39.95-277.05,39.95-13.89,26.1-3.87,225.5,5.15,333.74h-587.6c32.21-222.93,71.02-431.1,72.32-554.14,1.09-103.6-154.36-106.54-220.55-345.28-26.72-96.38-21.3-260.23,30.97-385.3,56.65-135.57,206.07-324.66,608.82-242.8,281.59,57.24,404.01,251.82,398.27,447.4-3.34,113.93,1.87,144.6,36.67,192.28,25.99,35.62,88.91,105.66,88.91,135.3,0,34.44-78.79,52.63-90.73,70.53Z"/>
    <path class="cls-3" d="M477.12,1091.68c11.93,17.9-16.51,65.82-2.4,73.97,119.4,68.99-.63,11.15,7.02,39.76,3.52,13.15,37.14,50.93,37.14,64.05s-26.83,108.62,23.43,130.53c70.29,30.64,234.52-39.95,277.05,39.95,13.89,26.1,3.87,225.5-5.15,333.74h587.6c-32.21-222.93-71.02-431.1-72.32-554.14-1.09-103.6,154.36-106.54,220.55-345.28,26.72-96.38,21.3-260.23-30.97-385.3-56.65-135.57-206.07-324.66-608.82-242.8-281.59,57.24-460.15,412.33-403.41,499.62,43.41,66.79,3.27,92.38-31.52,140.06-25.99,35.62-88.91,105.66-88.91,135.3,0,34.44,78.79,52.63,90.73,70.53Z"/>
    <path class="cls-5" d="M2022.88,1091.68c-11.93,17.9,27.97,79.67,2.4,73.97-92.12-20.52,3.45,28.77-7.02,39.76-14.32,15.04-37.14,50.93-37.14,64.05s26.83,108.62-23.43,130.53c-70.29,30.64-234.52-39.95-277.05,39.95-13.89,26.1-3.87,225.5,5.15,333.74h-587.6c32.21-222.93,71.02-431.1,72.32-554.14,1.09-103.6-154.36-106.54-220.55-345.28-26.72-96.38-21.3-260.23,30.97-385.3,56.65-135.57,206.07-324.66,608.82-242.8,281.59,57.24,404.01,251.82,398.27,447.4-3.34,113.93,1.87,144.6,36.67,192.28,25.99,35.62,88.91,105.66,88.91,135.3,0,34.44-78.79,52.63-90.73,70.53Z"/>
    <g>
      <path class="cls-1" d="M1181.18,537.08c-42.86,45.47-40.75,117.07,4.72,159.94,45.47,42.86,117.07,40.75,159.94-4.72,42.86-45.47,40.75-117.07-4.72-159.94-45.47-42.86-117.07-40.75-159.94,4.72ZM1229.39,582.53c17.76-18.84,47.44-19.72,66.28-1.95,18.84,17.76,19.72,47.44,1.96,66.28-17.76,18.84-47.44,19.72-66.28,1.95-18.84-17.76-19.72-47.44-1.95-66.28Z"/>
      <polygon class="cls-1" points="1292.66 536.12 1338.91 575.61 1374.91 534.31 1337.18 498.74 1292.66 536.12"/>
      <polygon class="cls-1" points="1153.91 693.16 1191.64 728.72 1234.7 690.43 1190.91 649.15 1153.91 693.16"/>
      <polygon class="cls-1" points="1187.98 583.52 1231.33 540.56 1184.98 503.23 1149.42 540.96 1187.98 583.52"/>
      <polygon class="cls-1" points="1343.83 724.23 1379.4 686.51 1340.37 644.23 1299.54 687.54 1343.83 724.23"/>
      <polygon class="cls-1" points="1188.99 646.01 1189.36 586.91 1130.11 591.76 1131.64 643.59 1188.99 646.01"/>
      <polygon class="cls-1" points="1398.7 635.71 1397.18 583.88 1337.93 581.85 1338.18 642.46 1398.7 635.71"/>
      <polygon class="cls-1" points="1294.79 687.09 1234.7 690.43 1239.58 747.53 1291.43 747.11 1294.79 687.09"/>
      <polygon class="cls-1" points="1289.23 479.94 1237.39 480.36 1235.41 537.84 1292.66 536.12 1289.23 479.94"/>
    </g>
    <path class="cls-2" d="M1384.63,562.72c61.03-279.23,341.36-281.26,459.1-138.64,75.3,96.7,75.39,230.95,38.52,336.88-26.49,76.1-104.58,137.14-219.47,136.61-100.67-.46-210.56-54.95-236.79-204.88-25.26-144.39,15.98-228.23,83.86-273.49,94.52-63.03,188.93-57.18,275.81-3.06,87.32,54.39,88.06,182.78,84.83,232.47-5.22,80.16-27.95,170.92-169.81,194.93-94.36,15.97-243.13-8.93-237.16-262.14,3.05-129.33,137.08-176.53,191.2-175.51,89.49,1.69,159.72,59.97,173.36,128.42,9.61,48.22,37.23,224.22-120.41,257.05-49.55,10.32-178.14,27.54-202.34-166.58-15.39-123.49,75.83-173.29,130.85-178.79,91.8-9.18,143.52,45.9,157.56,103.99,59.04,244.2-261.72,287.74-248.97,31.89,0,0,1.01-86.83,100.72-93.94,56.17-4,103.16,26.43,115.22,79.89,13.01,57.72-4.82,126.16-65.05,138.79-62.05,13.01-119.71-41.05-106.09-130.98,8.51-56.17,95.58-62.68,125.6-7.8,17.26,31.55,25.52,84.74-18.52,93.77-47.08,9.65-95.25-58.08-55.55-85.97,31.53-22.14,65.55,44.59,45.04,53.92"/>
    <path class="cls-2" d="M831.63,634.67s-15.48-72.22,24.64-95.23c20.46-11.74,104.24-37.26,105.07,22.54.84,59.79,27.64,80.02-6.23,123.11s-229.98,53.39-228.63-39.24c1.1-75.26,206.54-186.76,284.35-168.27,17.96,4.27,50.78,38.17,50.29,98.04-.88,107.48-4.95,129.41-67.97,174.44-44.06,31.48-94,20.95-126.42,14.72-87.48-16.83-215.26-113.5-227.84-124.4-51.01-44.21-38.47-159.21,45.56-155.9,70.53,2.78,112.53,315.25,97.42,328.41-60.92,53.02-213.94-23.23-213.62-104.29.32-81.06,265.6-66.89,295.13-41.28,29.53,25.61,142.31,181.24,122.35,195.63-53.47,38.55-348.67,24.81-220.36-92.63,128.31-117.44,176.58-196.29,209.89-162.74,33.31,33.55,186,215.24,58.69,213.89-77.01-.82-136.93-166.8-143.34-287.11-4.19-78.58,14.45-137.67,66.06-118.5,130.63,48.52,133.97,71.62,125.49,140.87-9.01,73.56-252.12,143.98-299.39,36.06-70.48-160.93-49.81-243.19,6.37-208.65,92.72,57.01,63.48,162.03,81.5,202,33.76,74.86,212.37,40.25,236.28,100.96,19.94,50.61,46.99,131.8-34.32,196.55-47.56,37.88-227.65,78.02-261.39-59.07-52.69-214.06,129.7-73.87,114.02-1.6-8.72,40.18-90.37,124.06-201.36,77.51-74.7-31.33-83.91-121.55-84.31-213.34-.58-134.04,139.74-420.1,426.37-282.99,112.31,53.73-22.05,284.78,84.73,257.61"/>
  </g>
</svg>