<?xml version="1.0" encoding="UTF-8"?>
<svg id="Layer_1" data-name="Layer 1" xmlns="http://www.w3.org/2000/svg" viewBox="0 0 646.85 638.91">
  <defs>
    <style>
      .cls-1, .cls-2 {
        fill: #14B8A6;
      }

      .cls-1, .cls-3 {
        fill-rule: evenodd;
      }

      .cls-3, .cls-4 {
        fill: #5F4B8B;
      }
    </style>
  </defs>
  <path class="cls-4" d="M638.11,270.4c-17.11-23.86-37.65-28.41-50.36-54.9-4.6-53.07-16.82-89.09-35.55-118.09C484.41-7.59,339.05-31.12,237.73,43.56c-1.82,1.34-3.6,2.71-5.37,4.1,23.4-9.02,48.82-13.98,75.4-13.98,115.81,0,209.7,93.89,209.7,209.7,0,56.98-22.74,108.65-59.63,146.45l-1.33,95.14c29.1-11.56,61.79-17.76,96.18-18.7,11.57-.32,23.18.34,34.72-.28,30.32-1.64,37.26-12.57,29.05-41.79-2.52-8.99-4.71-20.96-.85-28.28,10.27-12.42,12.01-22.02,1.57-29.33,16.55-7.94,9.12-27.58,8.21-28.79-10.36-13.81-.13-21.45,9.17-28.32,16.38-12.09,15.19-22.84,3.56-39.06Z"/>
  <path class="cls-2" d="M372.61,462.71l-18.73-14.74c-14.84,3.33-30.28,5.1-46.12,5.1-115.81,0-209.7-93.88-209.7-209.7,0-69.58,33.9-131.24,86.08-169.38C114.17,90.8,54.47,142.53,33.45,216.14c-9.02,31.55-10.18,67.68.31,117.22-4.24,27.61-21.66,37.42-30.63,63.85-6.1,17.96-4.2,28.07,14.03,34.54,10.36,3.67,21.77,7.8,16.17,23.22-.49,1.35-1.83,21.27,15.42,23.92-7.47,9.53-3.24,17.78,9.53,26.24,5.54,5.59,6.86,17.08,7.04,25.95.61,28.84,9.94,36.87,37.97,29.98,10.67-2.62,21.05-6.43,31.65-9.34,94.82-25.99,150.25-2.56,197.49,83.36,2.24-4.91,4.14-10.58,5.81-16.81-29.43-37.66,5.04-109.65,34.37-155.55Z"/>
  <g>
    <path class="cls-3" d="M247.57,248.54c0,20.48-16.61,37.09-37.09,37.09s-37.09-16.6-37.09-37.09,16.6-37.09,37.09-37.09,37.09,16.6,37.09,37.09Z"/>
    <path class="cls-3" d="M344.85,248.54c0,20.48-16.6,37.09-37.09,37.09s-37.09-16.6-37.09-37.09,16.6-37.09,37.09-37.09,37.09,16.6,37.09,37.09Z"/>
    <circle class="cls-4" cx="405.04" cy="248.54" r="37.09" transform="translate(-64.28 173.92) rotate(-22.5)"/>
  </g>
  <path class="cls-1" d="M356.26,449.38l-29.66,11.82-6.2,153.63,13.49,24.08s54.45-89.18,99.15-132.14l-76.77-57.39Z"/>
</svg>