<svg version="1.1"  xmlns="http://www.w3.org/2000/svg" xmlns:xlink="http://www.w3.org/1999/xlink" x="0px" y="0px"
	 viewBox="0 0 291 75" style="enable-background:new 0 0 291 75;" xml:space="preserve">
<path fill="#0012E7" d="M87.5,48.2c-2.3,0-4.3-0.5-6.1-1.5c-1.8-1-3.1-2.4-4.1-4.1c-1-1.8-1.5-3.8-1.5-6.1c0-2.3,0.5-4.3,1.5-6.1
	c1-1.8,2.4-3.1,4.1-4.1c1.8-1,3.8-1.5,6.1-1.5c2.3,0,4.3,0.5,6.1,1.5c1.8,1,3.1,2.4,4.1,4.1c1,1.8,1.5,3.8,1.5,6.1
	c0,2.3-0.5,4.3-1.5,6.1c-1,1.8-2.4,3.1-4.1,4.1C91.8,47.7,89.8,48.2,87.5,48.2z M87.5,42.7c1.1,0,2.1-0.3,2.9-0.8
	c0.8-0.5,1.5-1.3,2-2.2c0.5-0.9,0.7-2,0.7-3.2c0-1.2-0.2-2.3-0.7-3.2c-0.5-0.9-1.1-1.7-2-2.2c-0.9-0.5-1.8-0.8-2.9-0.8
	c-1.1,0-2.1,0.3-2.9,0.8c-0.9,0.5-1.5,1.3-2,2.2c-0.5,0.9-0.7,2-0.7,3.2c0,1.2,0.2,2.3,0.7,3.2c0.5,0.9,1.2,1.7,2,2.2
	C85.4,42.4,86.4,42.7,87.5,42.7z"/>
<path fill="#0012E7" d="M101.6,47.6V25.2h5.6l0.4,4.1v18.3H101.6z M116.5,36.2c0-1.5-0.2-2.7-0.5-3.5c-0.3-0.8-0.8-1.4-1.5-1.8
	c-0.6-0.4-1.4-0.6-2.2-0.6c-1.5,0-2.7,0.4-3.5,1.4c-0.8,1-1.2,2.4-1.2,4.3h-2c0-2.4,0.4-4.4,1.1-6.1c0.7-1.7,1.7-2.9,3-3.8
	c1.3-0.9,2.8-1.3,4.5-1.3c1.8,0,3.3,0.4,4.5,1.1c1.3,0.7,2.2,1.8,2.9,3.3c0.7,1.5,1,3.5,0.9,5.8v1.2H116.5z M116.5,47.6V36.2h5.9
	v11.5H116.5z"/>
<path fill="#0012E7" d="M143.7,48.2c-2.1,0-3.9-0.5-5.4-1.4c-1.5-1-2.7-2.3-3.5-4.1c-0.8-1.8-1.3-3.8-1.3-6.2c0-2.4,0.4-4.5,1.3-6.2
	c0.8-1.7,2-3.1,3.5-4.1c1.5-1,3.3-1.4,5.4-1.4c1.9,0,3.5,0.5,4.8,1.4c1.3,1,2.3,2.3,3,4.1c0.7,1.7,1,3.8,1,6.2c0,2.4-0.3,4.5-1,6.2
	c-0.7,1.8-1.7,3.1-3,4.1C147.2,47.7,145.6,48.2,143.7,48.2z M145.2,42.8c1,0,1.9-0.3,2.7-0.8c0.8-0.5,1.4-1.3,1.9-2.2
	c0.4-1,0.7-2,0.7-3.3c0-1.2-0.2-2.3-0.7-3.3c-0.4-1-1.1-1.7-1.9-2.2c-0.8-0.5-1.7-0.8-2.8-0.8c-1.1,0-2,0.3-2.8,0.8
	c-0.8,0.5-1.5,1.3-1.9,2.2c-0.5,1-0.7,2-0.7,3.3c0,1.2,0.2,2.3,0.7,3.3c0.5,1,1.1,1.7,2,2.2C143.2,42.5,144.1,42.8,145.2,42.8z
	 M150.7,47.6l-0.3-4.2V16.3h5.9v31.3H150.7z"/>
<path fill="#0012E7" d="M170.1,48.2c-2.2,0-4.2-0.5-5.9-1.5c-1.7-1-3-2.4-4-4.1c-1-1.8-1.5-3.8-1.5-6.1c0-2.3,0.5-4.3,1.5-6.1
	c1-1.8,2.4-3.1,4.1-4.1c1.7-1,3.8-1.5,6-1.5c2,0,3.8,0.5,5.4,1.5c1.7,1,3,2.5,4,4.5c1,2,1.5,4.4,1.5,7.2h-17l0.5-0.5
	c0,1.1,0.3,2.1,0.8,2.9c0.6,0.8,1.3,1.4,2.2,1.9c0.9,0.4,1.8,0.6,2.8,0.6c1.2,0,2.2-0.3,3-0.8c0.8-0.5,1.4-1.2,1.8-2l5.3,2.1
	c-0.6,1.3-1.4,2.3-2.4,3.2c-1,0.9-2.2,1.6-3.6,2.1C173.4,47.9,171.8,48.2,170.1,48.2z M165.2,34.2l-0.5-0.5h10.8l-0.5,0.5
	c0-1.1-0.3-1.9-0.8-2.6c-0.5-0.6-1.1-1.1-1.9-1.4c-0.7-0.3-1.4-0.4-2.1-0.4c-0.7,0-1.4,0.1-2.2,0.4c-0.8,0.3-1.4,0.8-2,1.4
	C165.5,32.2,165.2,33.1,165.2,34.2z"/>
<path fill="#0012E7" d="M184,47.6V25.2h5.6l0.3,2.9c0.7-1.1,1.6-2,2.6-2.6c1.1-0.6,2.3-0.9,3.6-0.9c1.8,0,3.4,0.4,4.6,1.2
	c1.2,0.8,2.1,2,2.7,3.6c0.7-1.5,1.6-2.7,2.8-3.5c1.2-0.8,2.6-1.2,4.2-1.2c2.6,0,4.6,0.8,6,2.5c1.4,1.7,2.1,4.2,2.1,7.6v12.8h-5.9
	V36.2c0-1.5-0.2-2.7-0.5-3.5c-0.3-0.8-0.8-1.4-1.3-1.8c-0.6-0.4-1.2-0.6-2-0.6c-1.4,0-2.5,0.4-3.3,1.4c-0.8,1-1.2,2.4-1.2,4.3v11.7
	h-5.9V36.2c0-1.5-0.2-2.7-0.5-3.5c-0.3-0.8-0.8-1.4-1.3-1.8c-0.6-0.4-1.3-0.6-2-0.6c-1.4,0-2.5,0.4-3.3,1.4c-0.8,1-1.1,2.4-1.1,4.3
	v11.7H184z"/>
<path fill="#0012E7" d="M229.4,48.2c-2.7,0-4.8-0.6-6.3-1.8c-1.5-1.2-2.2-2.9-2.2-5.1c0-2.4,0.8-4.2,2.4-5.4c1.6-1.2,3.9-1.8,6.8-1.8
	h5.7v4.4h-3.6c-1.9,0-3.3,0.2-4,0.7c-0.7,0.5-1.1,1.1-1.1,1.9c0,0.7,0.3,1.2,0.9,1.5c0.6,0.4,1.4,0.6,2.5,0.6c1,0,1.9-0.2,2.6-0.7
	c0.8-0.5,1.4-1.1,1.8-1.8c0.4-0.7,0.7-1.5,0.7-2.3h1.4c0,3-0.6,5.4-1.7,7.1C234.1,47.3,232.1,48.2,229.4,48.2z M235.7,47.6l-0.2-4.5
	v-6.8c0-1.3-0.1-2.5-0.4-3.4c-0.3-1-0.7-1.7-1.3-2.2c-0.6-0.5-1.4-0.8-2.5-0.8c-1,0-1.8,0.2-2.6,0.6c-0.8,0.4-1.4,1.1-2,1.9
	l-5.2-1.8c0.4-1,1-1.9,1.8-2.8c0.8-0.9,1.9-1.7,3.2-2.2s2.9-0.9,4.8-0.9c2.3,0,4.2,0.4,5.7,1.3c1.5,0.9,2.6,2.1,3.4,3.6
	c0.7,1.6,1.1,3.4,1.1,5.6l-0.1,12.4H235.7z"/>
<path fill="#0012E7" d="M244.9,47.6V25.2h5.6l0.4,4.1v18.3H244.9z M259.8,36.2c0-1.5-0.2-2.7-0.5-3.5c-0.3-0.8-0.8-1.4-1.5-1.8
	c-0.6-0.4-1.4-0.6-2.2-0.6c-1.5,0-2.7,0.4-3.5,1.4c-0.8,1-1.2,2.4-1.2,4.3h-2c0-2.4,0.4-4.4,1.1-6.1c0.7-1.7,1.7-2.9,3-3.8
	c1.3-0.9,2.8-1.3,4.5-1.3c1.8,0,3.3,0.4,4.5,1.1c1.3,0.7,2.2,1.8,2.9,3.3c0.7,1.5,1,3.5,0.9,5.8v1.2H259.8z M259.8,47.6V36.2h5.9
	v11.5H259.8z"/>
<path fill="#0012E7" d="M278.1,48.2c-2.1,0-3.8-0.5-5.4-1.4c-1.5-1-2.7-2.3-3.5-4.1c-0.8-1.8-1.3-3.8-1.3-6.2c0-2.4,0.4-4.5,1.3-6.2
	c0.8-1.7,2-3.1,3.5-4.1c1.5-1,3.3-1.4,5.4-1.4c1.9,0,3.5,0.5,4.8,1.4c1.3,1,2.3,2.3,3,4.1c0.7,1.7,1,3.8,1,6.2c0,2.4-0.3,4.5-1,6.2
	c-0.7,1.8-1.7,3.1-3,4.1C281.6,47.7,280,48.2,278.1,48.2z M279.6,42.8c1,0,1.9-0.3,2.7-0.8c0.8-0.5,1.4-1.3,1.9-2.2
	c0.4-1,0.7-2,0.7-3.3c0-1.2-0.2-2.3-0.7-3.3c-0.4-1-1.1-1.7-1.9-2.2c-0.8-0.5-1.7-0.8-2.8-0.8c-1.1,0-2,0.3-2.8,0.8
	c-0.8,0.5-1.5,1.3-1.9,2.2c-0.5,1-0.7,2-0.7,3.3c0,1.2,0.2,2.3,0.7,3.3c0.5,1,1.1,1.7,2,2.2C277.6,42.5,278.5,42.8,279.6,42.8z
	 M285.1,47.6l-0.3-4.2V16.3h5.9v31.3H285.1z"/>
<path fill="#0012E7" d="M61.5,66.9H5.3c-2.9,0-5.3-2.4-5.3-5.3V5.5c0-2.9,2.4-5.3,5.3-5.3h56.2c2.9,0,5.3,2.4,5.3,5.3v56.1
	C66.8,64.5,64.4,66.9,61.5,66.9z"/>
<path fill="#FFFFFF" d="M20.9,48.9c-2.1,0-4-0.5-5.6-1.6c-1.6-1.1-2.9-2.5-3.8-4.4C10.5,41,10,38.8,10,36.4c0-2.5,0.5-4.7,1.4-6.5
	c0.9-1.9,2.2-3.3,3.8-4.4c1.6-1.1,3.5-1.6,5.6-1.6c2,0,3.8,0.5,5.3,1.6c1.5,1.1,2.7,2.5,3.5,4.4c0.8,1.9,1.2,4.1,1.2,6.5
	c0,2.5-0.4,4.6-1.2,6.5c-0.8,1.9-2,3.4-3.5,4.4C24.6,48.4,22.9,48.9,20.9,48.9z M21.7,45.4c1.4,0,2.6-0.4,3.7-1.1
	c1.1-0.8,1.9-1.8,2.6-3.2c0.6-1.4,0.9-2.9,0.9-4.7c0-1.8-0.3-3.3-0.9-4.7c-0.6-1.4-1.5-2.4-2.6-3.2c-1.1-0.8-2.3-1.1-3.8-1.1
	c-1.5,0-2.8,0.4-4,1.1c-1.2,0.8-2.1,1.8-2.8,3.2c-0.7,1.4-1,2.9-1,4.7c0,1.8,0.3,3.3,1,4.7c0.7,1.4,1.6,2.4,2.8,3.2
	C18.9,45,20.2,45.4,21.7,45.4z M29.1,48.3L29,43.9v-29h3.8v33.4H29.1z"/>
<path fill="#FFFFFF" d="M37.3,48.3V24.4h3.8v23.9H37.3z M39.4,35.4c0-2.6,0.5-4.7,1.5-6.3c1-1.6,2.3-2.8,3.8-3.6
	c1.5-0.8,3.2-1.2,4.9-1.2v3.6c-1.4,0-2.8,0.2-4,0.7c-1.3,0.5-2.4,1.2-3.2,2.3c-0.8,1.1-1.2,2.5-1.2,4.3L39.4,35.4z"/>
<path fill="#FFFFFF" d="M57.7,40v3.7h-4.5v4.5h-3.7v-4.5h-4.5V40h4.5v-4.5h3.7V40H57.7z"/>
<path fill="#0012E7" d="M156.5,70.7V59.1h1.6v10.1l-0.1,1.6H156.5z M160.8,70.9c-0.7,0-1.3-0.2-1.8-0.6c-0.5-0.4-0.9-0.9-1.2-1.5
	c-0.3-0.7-0.4-1.4-0.4-2.3c0-0.9,0.1-1.6,0.4-2.3c0.3-0.7,0.7-1.2,1.2-1.5c0.5-0.4,1.1-0.6,1.8-0.6c0.7,0,1.4,0.2,2,0.6
	c0.6,0.4,1,0.9,1.3,1.5c0.3,0.7,0.5,1.4,0.5,2.3c0,0.9-0.2,1.6-0.5,2.3c-0.3,0.7-0.8,1.2-1.3,1.5C162.2,70.8,161.6,70.9,160.8,70.9z
	 M160.4,69.5c0.5,0,0.9-0.1,1.3-0.4c0.4-0.3,0.7-0.6,0.9-1c0.2-0.4,0.3-1,0.3-1.5c0-0.6-0.1-1.1-0.3-1.5c-0.2-0.4-0.5-0.8-0.9-1
	c-0.4-0.3-0.8-0.4-1.3-0.4c-0.5,0-0.9,0.1-1.2,0.4c-0.4,0.3-0.6,0.6-0.8,1s-0.3,1-0.3,1.5c0,0.6,0.1,1.1,0.3,1.5
	c0.2,0.4,0.5,0.8,0.8,1C159.6,69.4,160,69.5,160.4,69.5z"/>
<path fill="#0012E7" d="M168.7,70.7l-3.7-8.3h1.7l3,7.2l0.5,1.1H168.7z M167,74.3c-0.2,0-0.5,0-0.8-0.1c-0.3-0.1-0.6-0.2-0.9-0.4
	l0.6-1.3c0.2,0.1,0.5,0.2,0.6,0.3c0.2,0.1,0.3,0.1,0.4,0.1c0.3,0,0.5-0.1,0.7-0.2c0.2-0.2,0.4-0.4,0.5-0.7l1-2.3l3-7.3h1.7l-4,9.4
	c-0.2,0.5-0.4,1-0.7,1.3c-0.2,0.4-0.5,0.7-0.9,0.9C168,74.2,167.6,74.3,167,74.3z"/>
<path fill="#0012E7" d="M178.8,70.7V59.1h1.6v11.7H178.8z"/>
<path fill="#0012E7" d="M182.7,70.7v-8.3h1.5l0.1,1.5v6.8H182.7z M188.5,66.5c0-0.8-0.1-1.3-0.3-1.7c-0.2-0.4-0.4-0.7-0.7-0.8
	c-0.3-0.2-0.7-0.2-1.1-0.3c-0.7,0-1.2,0.2-1.6,0.7c-0.4,0.5-0.6,1.2-0.6,2h-0.7c0-0.9,0.1-1.6,0.4-2.3c0.3-0.6,0.6-1.1,1.1-1.4
	s1.1-0.5,1.7-0.5c0.7,0,1.2,0.1,1.7,0.4c0.5,0.3,0.9,0.7,1.1,1.2c0.3,0.6,0.4,1.3,0.4,2.2v0.4H188.5z M188.5,70.7v-4.3h1.6v4.3
	H188.5z"/>
<path fill="#0012E7" d="M195.6,70.9c-0.8,0-1.6-0.2-2.2-0.6c-0.6-0.4-1.2-0.9-1.5-1.5c-0.4-0.7-0.5-1.4-0.5-2.3c0-0.9,0.2-1.6,0.5-2.3
	c0.4-0.7,0.9-1.2,1.5-1.5c0.6-0.4,1.4-0.6,2.2-0.6c0.8,0,1.5,0.2,2.2,0.6c0.7,0.4,1.1,0.9,1.5,1.6l-1.4,0.6c-0.2-0.4-0.5-0.7-0.9-1
	c-0.4-0.2-0.8-0.4-1.4-0.4c-0.5,0-0.9,0.1-1.3,0.4c-0.4,0.2-0.7,0.6-0.9,1c-0.2,0.4-0.3,0.9-0.3,1.5c0,0.6,0.1,1.1,0.3,1.5
	c0.2,0.4,0.5,0.8,0.9,1c0.4,0.3,0.9,0.4,1.4,0.4c0.5,0,1-0.1,1.4-0.4c0.4-0.3,0.7-0.6,0.9-1.1l1.5,0.6c-0.3,0.7-0.8,1.3-1.5,1.7
	C197.2,70.7,196.4,70.9,195.6,70.9z"/>
<path fill="#0012E7" d="M200.5,70.7V59.1h1.6v11.7H200.5z"/>
<path fill="#0012E7" d="M203.8,66.7v-4.3h1.6v4.3H203.8z M205.4,66.7c0,0.7,0.1,1.3,0.3,1.7c0.2,0.4,0.4,0.7,0.7,0.8
	c0.3,0.2,0.7,0.2,1.1,0.3c0.7,0,1.2-0.2,1.6-0.7c0.4-0.5,0.6-1.2,0.6-2h0.7c0,0.9-0.1,1.6-0.4,2.3c-0.3,0.6-0.6,1.1-1.1,1.4
	c-0.5,0.3-1.1,0.5-1.8,0.5c-0.6,0-1.2-0.1-1.7-0.4c-0.5-0.3-0.9-0.7-1.1-1.3c-0.3-0.6-0.4-1.3-0.4-2.2v-0.4H205.4z M209.7,70.7
	l-0.1-1.5v-6.8h1.6v8.3H209.7z"/>
<path fill="#0012E7" d="M216.3,70.9c-0.8,0-1.4-0.2-2-0.6c-0.6-0.4-1-0.9-1.3-1.5c-0.3-0.7-0.5-1.4-0.5-2.3c0-0.9,0.2-1.6,0.5-2.3
	c0.3-0.7,0.8-1.2,1.3-1.5c0.6-0.4,1.2-0.6,2-0.6c0.7,0,1.3,0.2,1.8,0.6c0.5,0.4,0.9,0.9,1.2,1.5c0.3,0.7,0.4,1.4,0.4,2.3
	c0,0.9-0.1,1.6-0.4,2.3c-0.3,0.7-0.7,1.2-1.2,1.5C217.6,70.8,217,70.9,216.3,70.9z M216.7,69.5c0.5,0,0.9-0.1,1.2-0.4
	c0.4-0.3,0.6-0.6,0.8-1c0.2-0.4,0.3-0.9,0.3-1.5c0-0.6-0.1-1.1-0.3-1.5c-0.2-0.4-0.5-0.8-0.8-1c-0.4-0.3-0.8-0.4-1.3-0.4
	c-0.5,0-0.9,0.1-1.3,0.4c-0.4,0.3-0.7,0.6-0.9,1c-0.2,0.4-0.3,0.9-0.3,1.5c0,0.6,0.1,1.1,0.3,1.5c0.2,0.4,0.5,0.8,0.9,1
	C215.8,69.4,216.2,69.5,216.7,69.5z M219.1,70.7l-0.1-1.6V59.1h1.6v11.7H219.1z"/>
<path fill="#0012E7" d="M226.2,70.9c-0.8,0-1.5-0.2-2.2-0.6c-0.6-0.4-1.1-0.9-1.5-1.5c-0.4-0.7-0.5-1.4-0.5-2.3c0-0.9,0.2-1.6,0.5-2.3
	c0.4-0.7,0.9-1.2,1.5-1.5c0.6-0.4,1.4-0.6,2.2-0.6c0.8,0,1.4,0.2,2,0.6c0.6,0.4,1,0.9,1.4,1.6c0.3,0.7,0.5,1.5,0.5,2.5h-6.8l0.3-0.3
	c0,0.6,0.1,1.1,0.4,1.5c0.2,0.4,0.6,0.8,1,1c0.4,0.2,0.9,0.3,1.4,0.3c0.6,0,1-0.1,1.4-0.4c0.4-0.3,0.7-0.6,0.9-1l1.4,0.6
	c-0.2,0.4-0.5,0.8-0.9,1.1c-0.4,0.3-0.8,0.6-1.3,0.8C227.4,70.9,226.8,70.9,226.2,70.9z M223.8,65.9l-0.3-0.3h5.3l-0.3,0.3
	c0-0.5-0.1-0.9-0.3-1.3c-0.2-0.4-0.5-0.6-0.8-0.8c-0.3-0.2-0.7-0.3-1.1-0.3c-0.4,0-0.8,0.1-1.2,0.3c-0.4,0.2-0.7,0.4-0.9,0.8
	C223.9,65,223.8,65.4,223.8,65.9z"/>
<path fill="#0012E7" d="M234.7,70.9c-0.8,0-1.4-0.2-2-0.6c-0.6-0.4-1-0.9-1.3-1.5c-0.3-0.7-0.5-1.4-0.5-2.3c0-0.9,0.2-1.6,0.5-2.3
	c0.3-0.7,0.8-1.2,1.3-1.5c0.6-0.4,1.2-0.6,2-0.6c0.7,0,1.3,0.2,1.8,0.6c0.5,0.4,0.9,0.9,1.2,1.5c0.3,0.7,0.4,1.4,0.4,2.3
	c0,0.9-0.1,1.6-0.4,2.3c-0.3,0.7-0.7,1.2-1.2,1.5C236,70.8,235.4,70.9,234.7,70.9z M235,69.5c0.5,0,0.9-0.1,1.2-0.4
	c0.4-0.3,0.6-0.6,0.8-1c0.2-0.4,0.3-0.9,0.3-1.5c0-0.6-0.1-1.1-0.3-1.5c-0.2-0.4-0.5-0.8-0.8-1c-0.4-0.3-0.8-0.4-1.3-0.4
	c-0.5,0-0.9,0.1-1.3,0.4c-0.4,0.3-0.7,0.6-0.9,1c-0.2,0.4-0.3,0.9-0.3,1.5c0,0.6,0.1,1.1,0.3,1.5c0.2,0.4,0.5,0.8,0.9,1
	C234.1,69.4,234.5,69.5,235,69.5z M237.5,70.7l-0.1-1.6V59.1h1.6v11.7H237.5z"/>
<path fill="#0012E7" d="M245,70.7V59.1h1.6v11.7H245z M246.4,65.5V64h7.1v1.5H246.4z M252.9,70.7V59.1h1.6v11.7H252.9z"/>
<path fill="#0012E7" d="M260.5,70.9c-0.8,0-1.5-0.2-2.2-0.6c-0.6-0.4-1.1-0.9-1.5-1.5c-0.4-0.7-0.5-1.4-0.5-2.3c0-0.9,0.2-1.6,0.5-2.3
	c0.4-0.7,0.9-1.2,1.5-1.5c0.6-0.4,1.4-0.6,2.2-0.6c0.8,0,1.4,0.2,2,0.6c0.6,0.4,1,0.9,1.4,1.6c0.3,0.7,0.5,1.5,0.5,2.5h-6.8l0.3-0.3
	c0,0.6,0.1,1.1,0.4,1.5c0.2,0.4,0.6,0.8,1,1c0.4,0.2,0.9,0.3,1.4,0.3c0.6,0,1-0.1,1.4-0.4c0.4-0.3,0.7-0.6,0.9-1l1.4,0.6
	c-0.2,0.4-0.5,0.8-0.9,1.1c-0.4,0.3-0.8,0.6-1.3,0.8C261.7,70.9,261.1,70.9,260.5,70.9z M258.1,65.9l-0.3-0.3h5.3l-0.3,0.3
	c0-0.5-0.1-0.9-0.3-1.3c-0.2-0.4-0.5-0.6-0.8-0.8c-0.3-0.2-0.7-0.3-1.1-0.3c-0.4,0-0.8,0.1-1.2,0.3c-0.4,0.2-0.7,0.4-0.9,0.8
	C258.2,65,258.1,65.4,258.1,65.9z"/>
<path fill="#0012E7" d="M268.3,70.9c-1,0-1.8-0.2-2.3-0.7c-0.6-0.5-0.8-1.1-0.8-1.9c0-0.9,0.3-1.5,0.9-2c0.6-0.5,1.4-0.7,2.4-0.7h2.3
	V67h-1.9c-0.8,0-1.3,0.1-1.6,0.4c-0.3,0.2-0.5,0.6-0.5,1c0,0.4,0.1,0.7,0.4,0.9c0.3,0.2,0.7,0.3,1.2,0.3c0.5,0,0.9-0.1,1.2-0.3
	c0.3-0.2,0.6-0.5,0.8-0.8c0.2-0.4,0.3-0.8,0.3-1.2h0.6c0,1.1-0.2,2-0.7,2.7C270.1,70.6,269.3,70.9,268.3,70.9z M270.8,70.7l-0.1-1.5
	v-2.9c0-0.6-0.1-1.1-0.2-1.5c-0.1-0.4-0.4-0.7-0.6-0.9c-0.3-0.2-0.7-0.3-1.1-0.3c-0.4,0-0.8,0.1-1.1,0.3c-0.3,0.2-0.6,0.5-0.8,0.8
	l-1.4-0.5c0.2-0.4,0.5-0.7,0.8-1c0.3-0.3,0.7-0.5,1.1-0.7c0.4-0.2,0.9-0.3,1.5-0.3c0.8,0,1.4,0.2,2,0.5c0.5,0.3,0.9,0.8,1.2,1.4
	c0.3,0.6,0.4,1.3,0.4,2.2l0,4.5H270.8z"/>
<path fill="#0012E7" d="M274,70.7V59.1h1.6v11.7H274z"/>
<path fill="#0012E7" d="M276.6,63.8v-1.4h5.4v1.4H276.6z M280.6,70.9c-0.8,0-1.5-0.2-1.9-0.6c-0.5-0.4-0.7-1-0.7-1.8v-8.7h1.6v8.4
	c0,0.4,0.1,0.7,0.3,0.9c0.2,0.2,0.5,0.3,0.9,0.3c0.1,0,0.2,0,0.4-0.1c0.1,0,0.3-0.1,0.5-0.3l0.6,1.2c-0.3,0.2-0.6,0.3-0.8,0.4
	C281.2,70.9,280.9,70.9,280.6,70.9z"/>
<path fill="#0012E7" d="M283.5,70.7V59.1h1.6v11.7H283.5z M289.3,66.5c0-0.8-0.1-1.3-0.3-1.7c-0.2-0.4-0.4-0.7-0.7-0.8
	c-0.3-0.2-0.7-0.2-1-0.3c-0.7,0-1.2,0.2-1.6,0.7c-0.4,0.5-0.6,1.2-0.6,2h-0.7c0-0.9,0.1-1.6,0.4-2.3c0.3-0.6,0.6-1.1,1.1-1.4
	c0.5-0.3,1.1-0.5,1.7-0.5c0.7,0,1.2,0.1,1.7,0.4c0.5,0.3,0.9,0.7,1.1,1.2c0.3,0.6,0.4,1.3,0.4,2.2v0.4H289.3z M289.3,70.7v-4.3h1.6
	v4.3H289.3z"/>
</svg>
