<svg width="101" height="20" viewBox="0 0 101 20" fill="none" xmlns="http://www.w3.org/2000/svg">
<path d="M48.6662 8.66666L46.7465 8.04242C45.2674 7.57334 44.7747 7.27915 44.7747 6.46476C44.7747 5.65037 45.5654 5.07635 46.7887 5.07635C48.2498 5.07635 48.5773 5.62795 48.808 6.24233C49.0754 6.96344 49.4874 7.27108 50.1865 7.27108C50.8013 7.27108 51.2473 6.84505 51.2473 6.25758C51.2473 5.58669 50.8722 4.93195 50.2188 4.46108C49.4407 3.90051 48.2946 3.60364 46.9035 3.60364C45.4362 3.60364 44.2937 3.93549 43.5057 4.58844C42.7967 5.1777 42.4215 6.00196 42.4215 6.97331C42.4215 8.55545 43.3325 9.53666 45.3751 10.1546L47.5946 10.8246C48.7972 11.1852 49.3106 11.7188 49.3106 12.6104C49.3106 13.7709 48.2067 14.2992 47.1809 14.2992C45.7745 14.2992 45.1373 13.9396 44.7442 12.9234C44.4408 12.1655 44.002 11.8274 43.3199 11.8274C42.6378 11.8274 42.1666 12.3009 42.1666 12.9799C42.1666 14.0427 43.1835 15.8419 46.9951 15.8419C50.4701 15.8419 51.7078 13.8983 51.7078 12.0794C51.7078 10.4129 50.769 9.36087 48.6635 8.66756L48.6662 8.66666Z" fill="white"/>
<path d="M87.5906 11.6668C87.3779 11.6668 87.263 11.7502 87.0315 12.0749C86.1618 13.3234 85.2859 14.0463 83.3832 14.0463C81.0507 14.0463 79.5429 12.3494 79.5429 9.72322C79.5429 7.09708 81.0273 5.21537 83.1517 5.21537C84.6478 5.21537 85.1064 5.87639 85.3792 6.59033C85.5704 7.08721 85.8782 7.59486 86.7111 7.59486C87.4506 7.59486 87.9101 7.12668 87.9101 6.37328C87.9101 5.91406 87.6103 5.20641 86.7694 4.59651C86.1439 4.14357 85.0094 3.60364 83.1508 3.60364C81.2921 3.60364 79.735 4.23326 78.5925 5.42435C77.5236 6.53921 76.9348 8.06574 76.9348 9.72232C76.9348 13.2678 79.5492 15.8419 83.1508 15.8419C85.1297 15.8419 86.3503 14.98 87.0252 14.2571C87.771 13.4579 88.1183 12.5404 88.1183 12.1718C88.1183 11.8883 87.8859 11.6659 87.5897 11.6659L87.5906 11.6668Z" fill="white"/>
<path d="M100.129 9.02893C100.129 7.54276 99.6042 6.17588 98.6511 5.18121C97.6756 4.16323 96.3051 3.60266 94.792 3.60266C93.0042 3.60266 91.4632 4.23139 90.3351 5.42158C89.276 6.53913 88.6927 8.05848 88.6927 9.69892C88.6927 11.3394 89.2832 12.8901 90.3557 14.0094C91.5054 15.2077 93.0957 15.8418 94.9544 15.8418C96.9459 15.8418 98.171 14.9799 98.8486 14.257C99.5962 13.4587 99.9453 12.5403 99.9453 12.1708C99.9453 11.8874 99.7128 11.6658 99.4158 11.6658C99.2031 11.6658 99.0882 11.7492 98.8566 12.0739C97.987 13.3224 97.1066 14.0453 95.1859 14.0453C92.8606 14.0453 91.3788 12.4524 91.3016 9.88099H99.5082C100.082 9.88099 100.129 9.46034 100.129 9.02893ZM91.4587 8.22351C91.8796 6.32387 93.0894 5.23772 94.792 5.23772C96.3509 5.23772 97.3964 6.35167 97.6056 8.22351H91.4587Z" fill="white"/>
<path d="M63.2092 5.43332C62.0613 4.23685 60.4781 3.60364 58.6302 3.60364C57.2571 3.60364 55.988 4.08617 55.1103 4.93375V4.17317C55.1103 3.99559 54.9658 3.85029 54.7872 3.85029H52.1145C51.9359 3.85029 51.7905 3.99559 51.7905 4.17317V5.11044C51.7905 5.28892 51.9359 5.43422 52.1145 5.43422H52.7804C52.8594 5.43422 52.924 5.4988 52.924 5.57772V18.2474C52.924 18.599 52.9079 18.6358 52.6844 18.799L52.0598 19.2376C51.9027 19.3488 51.7905 19.4439 51.7905 19.6564C51.7905 19.7856 51.8506 20.0008 52.2509 20.0008H56.2734C56.6082 20.0008 56.7787 19.8851 56.7787 19.6564C56.7787 19.4483 56.6522 19.3542 56.4556 19.2331L55.6955 18.7963C55.4217 18.6268 55.4145 18.59 55.4145 18.2474V14.8993C56.225 15.5083 57.3585 15.8419 58.6302 15.8419C60.4781 15.8419 62.0613 15.2096 63.2092 14.0131C64.279 12.8965 64.8686 11.3726 64.8686 9.72411C64.8686 8.0756 64.279 6.54997 63.2092 5.43332ZM58.3996 14.2302C57.0489 14.2302 55.9342 13.6346 55.4145 12.6355V6.81187C55.9342 5.81182 57.0489 5.21537 58.3996 5.21537C60.5661 5.21537 62.2632 7.19574 62.2632 9.72411C62.2632 12.2525 60.5661 14.2302 58.3996 14.2302Z" fill="white"/>
<path d="M41.7916 14.7998L41.1212 14.3388C40.8457 14.1469 40.4391 13.7065 40.2381 13.4545L37.3482 9.89555L37.3347 9.8794C37.1131 9.61751 36.9022 9.36727 36.6589 9.19776L36.7209 9.13587L39.6556 5.92495C40.0855 5.47201 40.5307 5.25048 40.8547 5.08993L41.7818 4.65045C41.9514 4.56614 42.1084 4.45582 42.1084 4.22352C42.1084 4.09527 42.0492 3.88091 41.6498 3.88091H37.2809C36.8806 3.88091 36.8205 4.09616 36.8205 4.22352C36.8205 4.4343 36.9273 4.52668 37.0924 4.64507L37.7646 5.08545C37.8221 5.12132 37.8526 5.15272 37.8553 5.17962C37.8589 5.21101 37.8346 5.27559 37.7 5.41103L34.9035 8.43718C34.671 8.68921 34.5328 8.75468 34.2303 8.75468H33.7188L33.7296 0.322886C33.7296 0.144402 33.5851 0 33.4065 0H30.4295C30.2509 0 30.1064 0.144402 30.1064 0.322886V1.26015C30.1064 1.43863 30.2509 1.58304 30.4295 1.58304H31.0937C31.1726 1.58304 31.2372 1.64761 31.2372 1.72654C31.2372 2.04046 31.2274 3.24141 31.2265 3.42528V3.47461V13.8114C31.2265 14.1639 31.2112 14.1998 30.9877 14.3612L30.3631 14.8007C30.2007 14.9164 30.0939 15.0079 30.0939 15.2205C30.0939 15.3487 30.154 15.5649 30.5543 15.5649H34.391C34.7913 15.5649 34.8514 15.3496 34.8514 15.2205C34.8514 15.0079 34.7446 14.9164 34.5822 14.8007L33.9593 14.3621C33.734 14.1989 33.7188 14.163 33.7188 13.8114V10.4131H34.2303C34.5714 10.4131 34.7222 10.4382 34.9465 10.7037L37.7198 14.0509C37.7808 14.1289 37.8068 14.1819 37.8014 14.2159C37.7916 14.2742 37.683 14.3532 37.5995 14.4079L37.044 14.8007C36.8815 14.9173 36.7756 15.0097 36.7756 15.2205C36.7756 15.3487 36.8357 15.5649 37.236 15.5649H41.605C42.0052 15.5649 42.0654 15.3496 42.0654 15.2205C42.0654 15.0097 41.9586 14.9173 41.7952 14.7998H41.7916Z" fill="white"/>
<path d="M28.7065 14.8007L28.0837 14.3621C27.8584 14.1989 27.8431 14.163 27.8431 13.8114L27.8539 0.322886C27.8539 0.144402 27.7094 0 27.5308 0H24.5539C24.3753 0 24.2308 0.144402 24.2308 0.322886V1.26015C24.2308 1.43863 24.3753 1.58304 24.5539 1.58304H25.2189C25.2979 1.58304 25.3634 1.64761 25.3634 1.72654C25.3634 2.04135 25.3535 3.24141 25.3526 3.42528V13.8114C25.3526 14.163 25.3365 14.1989 25.113 14.3612L24.4883 14.8007C24.3259 14.9173 24.22 15.0097 24.22 15.2205C24.22 15.3487 24.2801 15.5649 24.6804 15.5649H28.5171C28.9174 15.5649 28.9775 15.3496 28.9775 15.2205C28.9775 15.0079 28.8707 14.9164 28.7083 14.8007H28.7065Z" fill="white"/>
<path d="M23.1832 14.4134C22.6402 14.4134 22.3423 14.4035 22.3423 13.3048V8.14489C22.3423 5.06582 20.8704 3.63257 17.7113 3.63257C14.5521 3.63257 13.1727 4.88016 13.1727 6.11789C13.1727 6.87219 13.678 7.35921 14.4606 7.35921C15.1669 7.35921 15.5789 7.00852 15.8822 6.14749C16.0985 5.54028 16.3309 5.17076 17.7337 5.17076C19.1365 5.17076 19.8572 5.91788 19.8572 7.52334V8.02022L18.2067 8.23997C14.4229 8.74582 12.5041 10.171 12.5041 12.476C12.5041 14.5174 13.9957 15.8367 16.3049 15.8367C18.151 15.8367 19.4273 14.9461 20.0591 14.0501C20.287 15.13 20.9611 15.7219 21.9752 15.7219C22.9894 15.7219 23.5288 15.173 23.5404 14.7694C23.5458 14.573 23.3807 14.4134 23.1832 14.4134ZM19.8572 10.8177C19.8572 12.3648 18.6617 14.0214 16.8811 14.0214C15.6928 14.0214 15.0117 13.3487 15.0117 12.1765C15.0117 10.8822 16.0563 10.1351 18.3 9.823L19.8572 9.60685V10.8177Z" fill="white"/>
<path d="M76.3948 14.4131C75.8518 14.4131 75.5529 14.4041 75.5529 13.3045V8.14465C75.5529 5.06558 74.082 3.63232 70.9219 3.63232C67.7619 3.63232 66.3834 4.87992 66.3834 6.11765C66.3834 6.87194 66.8895 7.35896 67.6721 7.35896C68.3776 7.35896 68.7895 7.00827 69.0938 6.14724C69.3091 5.54004 69.5416 5.17052 70.9453 5.17052C72.3489 5.17052 73.0687 5.91764 73.0687 7.52309V8.01998L71.4173 8.23972C67.6336 8.74558 65.7156 10.1708 65.7156 12.4758C65.7156 14.5172 67.2072 15.8365 69.5165 15.8365C71.3626 15.8365 72.6388 14.9459 73.2706 14.0499C73.4986 15.1297 74.1717 15.7217 75.1868 15.7217C76.2018 15.7217 76.7403 15.1728 76.752 14.7692C76.7573 14.5728 76.5922 14.4131 76.3948 14.4131ZM73.0687 10.8174C73.0687 12.3646 71.8724 14.0212 70.0926 14.0212C68.9044 14.0212 68.2232 13.3485 68.2232 12.1762C68.2232 10.882 69.2679 10.1349 71.5107 9.82276L73.0687 9.6066V10.8174Z" fill="white"/>
<path d="M13.8594 0.322886V3.02974C13.8594 3.2728 13.723 3.43604 13.5202 3.43604C13.2895 3.43604 13.1989 3.30868 13.1028 3.14186L12.7878 2.62434C12.4163 2.02162 12.0878 1.62698 10.9408 1.62698H8.65403V13.7513C8.65403 14.0949 8.66928 14.1298 8.88827 14.2895L9.63407 14.8079C9.79383 14.9227 9.89883 15.0124 9.89883 15.2214C9.89883 15.3756 9.81626 15.5595 9.42406 15.5595H5.30463C4.91243 15.5595 4.83075 15.3756 4.83075 15.2214C4.83075 15.0124 4.93486 14.9227 5.09461 14.8088L5.84222 14.2877C6.05941 14.1298 6.07556 14.0949 6.07556 13.7513V1.62698H3.78878C2.6418 1.62698 2.31242 2.02162 1.94087 2.62434L1.62495 3.14455C1.53072 3.30868 1.43917 3.43604 1.20852 3.43604C1.00569 3.43604 0.870171 3.2728 0.870171 3.02974V0.322886C0.870171 0.144402 1.01467 0 1.19326 0H13.5363C13.7149 0 13.8594 0.144402 13.8594 0.322886Z" fill="white"/>
</svg>
